# xmcd CD database file
#
# Track frame offsets:
#	150
#	24231
#	65470
#	96709
#	129855
#	173670
#
# Disc length: 2478 seconds
#
# Revision: 0
# Processed by: cddbd v1.5.1PL0 Copyright (c) Steve Scherf et al.
# Submitted via: CDex 1.51
#
DISCID=4609ac06
DTITLE=CSUH Jazz Ensemble` - Excursions [CD1]
DYEAR=2002
DGENRE=Jazz
TTITLE0=This
TTITLE1=Vagabond
TTITLE2=You Know I Care
TTITLE3=When You're Around I Get The Blues
TTITLE4=Dreamers and Doers
TTITLE5=America
EXTD=YEAR: 2002
EXTT0=
EXTT1=
EXTT2=
EXTT3=
EXTT4=
EXTT5=
PLAYORDER=
